<svg width="50" height="50" xmlns="http://www.w3.org/2000/svg"><path d="M25 0C11.187 0 0 11.47 0 25.632c0 11.343 7.156 20.923 17.094 24.319 1.25.224 1.718-.545 1.718-1.218 0-.608-.03-2.627-.03-4.774-6.282 1.186-7.907-1.57-8.407-3.011-.281-.737-1.5-3.012-2.563-3.62-.875-.482-2.125-1.667-.03-1.699 1.968-.032 3.374 1.858 3.843 2.627 2.25 3.877 5.844 2.788 7.281 2.115.219-1.666.875-2.788 1.594-3.428-5.563-.641-11.375-2.852-11.375-12.656 0-2.788.969-5.095 2.563-6.889-.25-.64-1.126-3.268.25-6.793 0 0 2.093-.672 6.874 2.628 2-.577 4.125-.865 6.25-.865s4.25.288 6.25.865c4.782-3.333 6.875-2.628 6.875-2.628 1.376 3.525.5 6.152.25 6.793C40.032 19.192 41 21.468 41 24.287c0 9.836-5.844 12.015-11.406 12.656.906.8 1.687 2.339 1.687 4.742 0 3.428-.031 6.183-.031 7.048 0 .673.469 1.474 1.719 1.218C42.844 46.555 50 36.943 50 25.632 50 11.47 38.812 0 25 0z" fill="#FFF" fill-rule="evenodd"/></svg>